<?xml version="1.0" standalone="no"?>
<!DOCTYPE svg PUBLIC "-//W3C//DTD SVG 20010904//EN"
 "http://www.w3.org/TR/2001/REC-SVG-20010904/DTD/svg10.dtd">
<svg version="1.0" xmlns="http://www.w3.org/2000/svg"
 width="180.000000pt" height="180.000000pt" viewBox="0 0 180.000000 180.000000"
 preserveAspectRatio="xMidYMid meet">
<metadata>
Created by potrace 1.14, written by Peter Selinger 2001-2017
</metadata>
<g transform="translate(0.000000,180.000000) scale(0.100000,-0.100000)"
fill="#000000" stroke="none">
<path d="M128 1786 c-20 -6 -50 -24 -67 -40 -62 -59 -61 -47 -61 -844 0 -522
3 -736 12 -766 6 -22 25 -55 41 -73 60 -64 45 -63 845 -63 522 0 736 3 766 12
22 6 55 25 73 41 64 60 63 45 63 845 0 522 -3 736 -12 766 -6 22 -25 55 -41
73 -60 64 -44 63 -851 62 -519 -1 -742 -4 -768 -13z m124 -528 c8 -7 41 -60
73 -118 32 -58 71 -127 86 -155 16 -27 50 -89 76 -137 l47 -87 24 47 c29 57
87 164 190 347 61 109 67 115 119 115 l43 0 0 -370 0 -370 -45 0 -45 0 0 283
c0 320 8 304 -77 147 -22 -41 -49 -91 -60 -110 -11 -19 -41 -75 -67 -123 -48
-88 -48 -88 -85 -85 -36 3 -36 3 -161 228 l-125 224 -3 -282 -2 -282 -45 0
-45 0 0 370 0 370 43 0 c24 0 50 -6 59 -12z m1277 -3 c48 -17 121 -65 120 -80
0 -18 -37 -55 -54 -55 -9 0 -29 8 -43 19 -95 67 -261 47 -335 -40 -50 -57 -71
-133 -64 -229 10 -156 102 -250 245 -250 69 0 114 13 159 46 39 29 41 29 70 2
30 -28 29 -35 -9 -69 -73 -64 -210 -92 -315 -65 -158 40 -250 159 -260 337
-11 182 70 319 224 379 60 24 202 27 262 5z"/>
</g>
</svg>
